#!OML:ASF F:\VICON\USERDATA\INSTALL\SteveWalk\SteveWalk.ASF
:FULLY-SPECIFIED
:DEGREES
212
root 0.127743 16.3125 1.16449 17.5631 3.46315 4.09358
lowerback -13.055 -2.595 -4.33702
upperback -5.19098 -2.88869 -0.391594
thorax 2.04259 -1.40077 1.60837
lowerneck -6.69479 -0.839092 -0.231671
upperneck 7.87687 -1.43102 3.62676
head 3.79419 -0.553895 1.16843
rclavicle 9.0315e-015 5.69021e-015
rhumerus -100.947 -39.3712 13.0827
rradius 10.4023
rwrist 70.5168
rhand -15.9969 -37.5396
rfingers 7.12502
rthumb 10.2031 -67.2721
lclavicle 9.0315e-015 5.69021e-015
lhumerus -13.2399 -6.08714 81.0177
lradius 37.403
lwrist 5.25465
lhand -21.1195 -17.6589
lfingers 7.12502
lthumb 5.25892 12.2559
rfemur -50.0651 -6.17425 19.7803
rtibia 31.3781
rfoot -11.4635 -6.94096
rtoes -15.2128
lfemur -13.2117 7.95693 -25.2929
ltibia 26.5858
lfoot -24.6831 -14.8866
ltoes -4.05613
213
root 0.123011 16.3026 1.37366 17.555 4.2618 4.16031
lowerback -12.8646 -2.8139 -4.15426
upperback -5.10354 -3.20876 -0.355695
thorax 2.04418 -1.56279 1.50051
lowerneck -6.62314 -0.825959 -0.150683
upperneck 7.43141 -1.39758 3.52973
head 3.62026 -0.545123 1.11993
rclavicle -1.81966e-014 2.98177e-016
rhumerus -99.2621 -38.812 10.3871
rradius 10.5802
rwrist 67.1722
rhand -16.1153 -37.8982
rfingers 7.12502
rthumb 10.0889 -67.6363
lclavicle -1.81966e-014 2.98177e-016
lhumerus -12.1515 -6.99368 80.6476
lradius 39.3318
lwrist 6.52865
lhand -20.9632 -16.3149
lfingers 7.12502
lthumb 5.40989 13.5961
rfemur -49.7649 -6.37161 19.5109
rtibia 28.2663
rfoot -11.2392 -6.46068
rtoes -13.7086
lfemur -11.9623 7.67419 -24.9508
ltibia 25.8177
lfoot -24.9744 -14.7977
ltoes -5.97978
214
root 0.117611 16.2811 1.58238 17.8613 5.3377 4.12293
lowerback -13.0678 -3.12206 -3.76948
upperback -5.16236 -3.65535 -0.262911
thorax 2.10177 -1.78766 1.30589
lowerneck -6.19352 -0.877261 -0.093056
upperneck 6.97117 -1.43917 3.36324
head 3.37386 -0.580493 1.04903
rclavicle 4.93856e-015 1.48095e-014
rhumerus -97.9057 -38.0472 8.29594
rradius 10.7122
rwrist 64.3781
rhand -15.8122 -38.3734
rfingers 7.12502
rthumb 10.3814 -68.0972
lclavicle 4.93856e-015 1.48095e-014
lhumerus -11.2979 -7.47091 80.2687
lradius 40.4004
lwrist 6.39063
lhand -21.0812 -17.4725
lfingers 7.12502
lthumb 5.29596 12.4413
rfemur -49.8457 -6.84372 19.4824
rtibia 25.4397
rfoot -10.9088 -6.38988
rtoes 8.04021
lfemur -11.0385 7.1604 -24.4444
ltibia 24.9356
lfoot -24.8 -15.5602
ltoes -3.95067
215
root 0.11212 16.2472 1.79712 18.1073 5.9674 4.27787
lowerback -13.1449 -3.32689 -3.64189
upperback -5.23228 -3.93923 -0.248119
thorax 2.07759 -1.92876 1.20453
lowerneck -6.32048 -0.915325 0.00331774
upperneck 6.9958 -1.48523 3.16528
head 3.40396 -0.607249 0.964487
rclavicle -2.43387e-014 -8.84592e-015
rhumerus -98.2022 -37.1518 8.84635
rradius 10.7981
rwrist 63.7713
rhand -15.6072 -38.1406
rfingers 7.12502
rthumb 10.5791 -67.8543
lclavicle -2.43387e-014 -8.84592e-015
lhumerus -10.5769 -7.70392 79.8483
lradius 41.7899
lwrist 6.08903
lhand -20.9251 -17.9535
lfingers 7.12502
lthumb 5.44668 11.9565
rfemur -50.0102 -7.20511 19.2753
rtibia 22.9883
rfoot -10.3887 -6.37648
rtoes -18.0962
lfemur -9.933 6.86316 -24.2707
ltibia 23.9603
lfoot -24.904 -15.5022
ltoes -4.5995
216
root 0.0992752 16.2374 2.01599 18.1832 6.27242 4.37954
lowerback -13.0846 -3.44687 -3.63539
upperback -5.2405 -4.10262 -0.212071
thorax 2.04678 -2.00951 1.21672
lowerneck -6.5646 -0.861942 0.0382435
upperneck 7.00567 -1.41058 3.05327
head 3.45152 -0.571658 0.925023
rclavicle -2.37144e-014 1.22253e-014
rhumerus -97.9362 -36.3865 8.46309
rradius 10.8794
rwrist 62.4814
rhand -15.5445 -37.7501
rfingers 7.12502
rthumb 10.6396 -67.4608
lclavicle -2.37144e-014 1.22253e-014
lhumerus -9.94659 -8.0153 79.4165
lradius 43.4016
lwrist 6.25114
lhand -20.9389 -17.9924
lfingers 7.12502
lthumb 5.43334 11.9179
rfemur -49.894 -7.35229 19.2204
rtibia 20.7649
rfoot -10.0885 -5.9958
rtoes -20.3633
lfemur -8.67301 6.55069 -24.0979
ltibia 23.0618
lfoot -24.7633 -14.5225
ltoes -8.06868
217
root 0.0881184 16.2353 2.23681 18.3323 6.65269 4.52715
lowerback -13.3008 -3.6097 -3.64501
upperback -5.13577 -4.30508 -0.169524
thorax 2.28662 -2.11369 1.21788
lowerneck -6.58779 -0.774839 0.0610095
upperneck 6.63186 -1.27686 2.94542
head 3.3223 -0.513066 0.890179
rclavicle 6.35707e-014 1.49089e-014
rhumerus -96.4852 -35.9981 6.05378
rradius 11.0266
rwrist 59.5553
rhand -15.1581 -37.3154
rfingers 7.12502
rthumb 11.0123 -67.0066
lclavicle 6.35707e-014 1.49089e-014
lhumerus -9.25797 -8.23396 79.0428
lradius 44.9432
lwrist 6.62573
lhand -21.3358 -18.0292
lfingers 7.12502
lthumb 5.0501 11.8906
rfemur -49.8258 -7.58268 19.1162
rtibia 18.835
rfoot -9.7177 -5.77049
rtoes -17.5511
lfemur -7.53317 6.07084 -23.9657
ltibia 22.1725
lfoot -24.5126 -13.9734
ltoes -10.2949
218
root 0.0850113 16.2008 2.45443 18.6008 6.91019 4.8965
lowerback -13.5291 -3.74468 -3.76812
upperback -5.01587 -4.4524 -0.216325
thorax 2.54725 -2.19053 1.19527
lowerneck -6.78399 -0.733741 0.272461
upperneck 6.23761 -1.20984 2.63376
head 3.21716 -0.489517 0.752074
rclavicle 5.86104e-014 1.28216e-014
rhumerus -95.9832 -35.779 5.24948
rradius 11.1387
rwrist 57.9976
rhand -14.6244 -36.842
rfingers 7.12502
rthumb 11.527 -66.5051
lclavicle 5.86104e-014 1.28216e-014
lhumerus -8.61143 -8.26013 78.7171
lradius 46.4438
lwrist 6.78645
lhand -21.6949 -18.5825
lfingers 7.12502
lthumb 4.70334 11.3453
rfemur -50.1144 -7.85911 18.6601
rtibia 17.2512
rfoot -11.1188 -3.89053
rtoes -17.0728
lfemur -6.52099 5.64117 -24.1341
ltibia 21.3507
lfoot -24.1321 -13.8723
ltoes -12.3253
219
root 0.0812015 16.1624 2.67179 18.9367 6.94618 5.14997
lowerback -13.6805 -3.82987 -3.80896
upperback -5.05787 -4.55327 -0.212141
thorax 2.59267 -2.2404 1.19781
lowerneck -6.9206 -0.713851 0.43422
upperneck 6.05182 -1.16971 2.28185
head 3.17367 -0.48045 0.60982
rclavicle 9.86469e-015 9.14409e-015
rhumerus -95.6844 -35.39 5.00327
rradius 11.1991
rwrist 57.147
rhand -14.195 -36.7075
rfingers 7.12502
rthumb 11.9411 -66.3469
lclavicle 9.86469e-015 9.14409e-015
lhumerus -8.16917 -8.28658 78.3751
lradius 47.8279
lwrist 7.19482
lhand -21.8761 -19.2074
lfingers 7.12502
lthumb 4.52839 10.7242
rfemur -50.4957 -7.97603 18.3686
rtibia 15.8649
rfoot -11.4476 -2.19004
rtoes -16.6661
lfemur -5.72711 5.44551 -24.2332
ltibia 20.7722
lfoot -23.7837 -13.7686
ltoes -16.3663
220
root 0.0751261 16.1353 2.89446 19.329 6.74994 5.20066
lowerback -14.0194 -3.84874 -3.71815
upperback -5.1589 -4.57831 -0.138846
thorax 2.66884 -2.25252 1.20191
lowerneck -7.03243 -0.657593 0.46201
upperneck 6.02273 -1.08074 2.05336
head 3.18176 -0.444217 0.534531
rclavicle -4.54409e-014 -8.54774e-015
rhumerus -94.5044 -34.9562 3.29488
rradius 11.2732
rwrist 55.108
rhand -13.8492 -36.5606
rfingers 7.12502
rthumb 12.2745 -66.1804
lclavicle -4.54409e-014 -8.54774e-015
lhumerus -7.86411 -8.16353 78.0553
lradius 49.135
lwrist 7.84166
lhand -21.9473 -19.288
lfingers 7.12502
lthumb 4.45965 10.6451
rfemur -50.8009 -7.87068 18.3597
rtibia 14.6404
rfoot -11.3184 -0.759864
rtoes -17.2986
lfemur -5.19866 5.20063 -24.2174
ltibia 20.5205
lfoot -23.2607 -13.788
ltoes -13.7187
221
root 0.0701957 16.1145 3.13061 19.5322 6.98511 5.35056
lowerback -14.3426 -3.99782 -3.62385
upperback -5.14224 -4.77359 -0.0862535
thorax 2.86647 -2.35173 1.14882
lowerneck -7.24741 -0.594396 0.497268
upperneck 6.08613 -0.987787 1.84503
head 3.24213 -0.403771 0.464841
rclavicle -1.8897e-014 -5.36719e-015
rhumerus -93.8766 -34.6114 2.48603
rradius 11.3024
rwrist 53.676
rhand -13.7616 -36.2519
rfingers 7.12502
rthumb 12.359 -65.8666
lclavicle -1.8897e-014 -5.36719e-015
lhumerus -7.84177 -7.89834 77.8193
lradius 50.5972
lwrist 8.33853
lhand -22.1224 -19.1016
lfingers 7.12502
lthumb 4.29053 10.835
rfemur -50.804 -7.88653 18.0435
rtibia 14.1273
rfoot -11.933 0.308446
rtoes -17.0833
lfemur -4.39703 4.36858 -24.1391
ltibia 20.2219
lfoot -22.2298 -14.4137
ltoes -12.4268
222
root 0.0676322 16.0933 3.36735 19.7598 7.2646 5.42048
lowerback -14.6603 -4.13031 -3.39196
upperback -5.19708 -4.96974 -0.00175302
thorax 2.97718 -2.44992 1.05424
lowerneck -6.99625 -0.589551 0.535792
upperneck 5.81103 -0.95367 1.52634
head 3.09599 -0.401981 0.355893
rclavicle -8.92046e-015 -6.95746e-015
rhumerus -94.1228 -34.2625 3.27702
rradius 11.2951
rwrist 53.6571
rhand -13.7356 -36.1252
rfingers 7.12502
rthumb 12.384 -65.7384
lclavicle -8.92046e-015 -6.95746e-015
lhumerus -7.98056 -7.76922 77.6331
lradius 51.9624
lwrist 8.85497
lhand -22.5014 -18.8251
lfingers 7.12502
lthumb 3.92455 11.1185
rfemur -50.9262 -7.68748 17.6069
rtibia 14.2976
rfoot -12.7037 0.972321
rtoes -15.6462
lfemur -3.67271 3.4703 -23.9648
ltibia 19.9559
lfoot -20.6721 -15.0609
ltoes -10.8029
